<svg xmlns="http://www.w3.org/2000/svg" width="600" height="240" viewBox="0 0 600 240">
  <rect width="100%" height="100%" fill="#0b0b0b"/>
  <g font-family="Times New Roman, serif" fill="#ffffff">
    <text x="40" y="120" font-size="84" letter-spacing="4">PINE</text>
    <text x="40" y="210" font-size="84" letter-spacing="4">IVORY</text>
  </g>
  <g transform="translate(360,80)">
    <circle cx="48" cy="48" r="0" fill="none"/>
    <path d="M80 32c-18 0-32 14-32 32 0 18 12 28 26 28 10 0 18-4 24-10l8 12c-10 10-24 16-38 16-26 0-46-18-46-44 0-26 22-46 50-46 14 0 26 4 36 12l-10 12c-8-6-16-10-28-12z" fill="#b28b50"/>
    <path d="M64 44c6-6 16-10 26-10 10 0 18 4 26 10l-8 10c-6-4-12-8-18-8-6 0-12 2-16 6l-10-8z" fill="#b28b50" opacity="0.85"/>
  </g>
  <text x="465" y="220" font-size="32" fill="#b28b50" letter-spacing="2">LTD.</text>
</svg>
